<mxfile host="app.diagrams.net" agent="Mozilla/5.0 (Macintosh; Intel Mac OS X 10_15_7) AppleWebKit/605.1.15 (KHTML, like Gecko) Version/18.0.1 Safari/605.1.15" version="24.8.1">
  <diagram name="Page-1" id="2YBvvXClWsGukQMizWep">
    <mxGraphModel dx="871" dy="488" grid="1" gridSize="10" guides="1" tooltips="1" connect="1" arrows="1" fold="1" page="1" pageScale="1" pageWidth="850" pageHeight="1100" math="0" shadow="0">
      <root>
        <mxCell id="0" />
        <mxCell id="1" parent="0" />
        <mxCell id="aM9ryv3xv72pqoxQDRHE-1" value="" style="shape=umlLifeline;perimeter=lifelinePerimeter;whiteSpace=wrap;html=1;container=0;dropTarget=0;collapsible=0;recursiveResize=0;outlineConnect=0;portConstraint=eastwest;newEdgeStyle={&quot;edgeStyle&quot;:&quot;elbowEdgeStyle&quot;,&quot;elbow&quot;:&quot;vertical&quot;,&quot;curved&quot;:0,&quot;rounded&quot;:0};size=0;" parent="1" vertex="1">
          <mxGeometry x="40" y="70" width="100" height="450" as="geometry" />
        </mxCell>
        <mxCell id="aM9ryv3xv72pqoxQDRHE-2" value="" style="html=1;points=[];perimeter=orthogonalPerimeter;outlineConnect=0;targetShapes=umlLifeline;portConstraint=eastwest;newEdgeStyle={&quot;edgeStyle&quot;:&quot;elbowEdgeStyle&quot;,&quot;elbow&quot;:&quot;vertical&quot;,&quot;curved&quot;:0,&quot;rounded&quot;:0};" parent="aM9ryv3xv72pqoxQDRHE-1" vertex="1">
          <mxGeometry x="45" y="20" width="10" height="370" as="geometry" />
        </mxCell>
        <mxCell id="aM9ryv3xv72pqoxQDRHE-5" value="Rendszer" style="shape=umlLifeline;perimeter=lifelinePerimeter;whiteSpace=wrap;html=1;container=0;dropTarget=0;collapsible=0;recursiveResize=0;outlineConnect=0;portConstraint=eastwest;newEdgeStyle={&quot;edgeStyle&quot;:&quot;elbowEdgeStyle&quot;,&quot;elbow&quot;:&quot;vertical&quot;,&quot;curved&quot;:0,&quot;rounded&quot;:0};" parent="1" vertex="1">
          <mxGeometry x="220" y="20" width="100" height="500" as="geometry" />
        </mxCell>
        <mxCell id="aM9ryv3xv72pqoxQDRHE-6" value="" style="html=1;points=[];perimeter=orthogonalPerimeter;outlineConnect=0;targetShapes=umlLifeline;portConstraint=eastwest;newEdgeStyle={&quot;edgeStyle&quot;:&quot;elbowEdgeStyle&quot;,&quot;elbow&quot;:&quot;vertical&quot;,&quot;curved&quot;:0,&quot;rounded&quot;:0};" parent="aM9ryv3xv72pqoxQDRHE-5" vertex="1">
          <mxGeometry x="45" y="70" width="10" height="360" as="geometry" />
        </mxCell>
        <mxCell id="aM9ryv3xv72pqoxQDRHE-7" value="fizetési mód kiválasztása" style="html=1;verticalAlign=bottom;endArrow=block;edgeStyle=elbowEdgeStyle;elbow=vertical;curved=0;rounded=0;" parent="1" source="aM9ryv3xv72pqoxQDRHE-2" target="aM9ryv3xv72pqoxQDRHE-6" edge="1">
          <mxGeometry relative="1" as="geometry">
            <mxPoint x="195" y="130" as="sourcePoint" />
            <Array as="points">
              <mxPoint x="180" y="90" />
            </Array>
          </mxGeometry>
        </mxCell>
        <mxCell id="dHhgo-KEHREzpWXKJiHu-4" value="Fizetési rendszer" style="shape=umlLifeline;perimeter=lifelinePerimeter;whiteSpace=wrap;html=1;container=0;dropTarget=0;collapsible=0;recursiveResize=0;outlineConnect=0;portConstraint=eastwest;newEdgeStyle={&quot;edgeStyle&quot;:&quot;elbowEdgeStyle&quot;,&quot;elbow&quot;:&quot;vertical&quot;,&quot;curved&quot;:0,&quot;rounded&quot;:0};" vertex="1" parent="1">
          <mxGeometry x="380" y="20" width="100" height="500" as="geometry" />
        </mxCell>
        <mxCell id="dHhgo-KEHREzpWXKJiHu-5" value="" style="html=1;points=[];perimeter=orthogonalPerimeter;outlineConnect=0;targetShapes=umlLifeline;portConstraint=eastwest;newEdgeStyle={&quot;edgeStyle&quot;:&quot;elbowEdgeStyle&quot;,&quot;elbow&quot;:&quot;vertical&quot;,&quot;curved&quot;:0,&quot;rounded&quot;:0};" vertex="1" parent="dHhgo-KEHREzpWXKJiHu-4">
          <mxGeometry x="45" y="170" width="10" height="230" as="geometry" />
        </mxCell>
        <mxCell id="dHhgo-KEHREzpWXKJiHu-6" value="Bankkártya/PayPal" style="shape=umlLifeline;perimeter=lifelinePerimeter;whiteSpace=wrap;html=1;container=0;dropTarget=0;collapsible=0;recursiveResize=0;outlineConnect=0;portConstraint=eastwest;newEdgeStyle={&quot;edgeStyle&quot;:&quot;elbowEdgeStyle&quot;,&quot;elbow&quot;:&quot;vertical&quot;,&quot;curved&quot;:0,&quot;rounded&quot;:0};" vertex="1" parent="1">
          <mxGeometry x="530" y="20" width="110" height="500" as="geometry" />
        </mxCell>
        <mxCell id="dHhgo-KEHREzpWXKJiHu-7" value="" style="html=1;points=[];perimeter=orthogonalPerimeter;outlineConnect=0;targetShapes=umlLifeline;portConstraint=eastwest;newEdgeStyle={&quot;edgeStyle&quot;:&quot;elbowEdgeStyle&quot;,&quot;elbow&quot;:&quot;vertical&quot;,&quot;curved&quot;:0,&quot;rounded&quot;:0};" vertex="1" parent="dHhgo-KEHREzpWXKJiHu-6">
          <mxGeometry x="50" y="190" width="10" height="200" as="geometry" />
        </mxCell>
        <mxCell id="dHhgo-KEHREzpWXKJiHu-16" value="fizetés elindítása" style="html=1;verticalAlign=bottom;endArrow=block;edgeStyle=elbowEdgeStyle;elbow=vertical;curved=0;rounded=0;" edge="1" parent="1" source="aM9ryv3xv72pqoxQDRHE-6" target="dHhgo-KEHREzpWXKJiHu-5">
          <mxGeometry relative="1" as="geometry">
            <mxPoint x="270" y="189.66" as="sourcePoint" />
            <Array as="points">
              <mxPoint x="330" y="190" />
              <mxPoint x="400" y="160" />
              <mxPoint x="355" y="189.66" />
            </Array>
            <mxPoint x="440" y="189.66" as="targetPoint" />
          </mxGeometry>
        </mxCell>
        <mxCell id="dHhgo-KEHREzpWXKJiHu-17" value="fizetés" style="html=1;verticalAlign=bottom;endArrow=block;edgeStyle=elbowEdgeStyle;elbow=vertical;curved=0;rounded=0;" edge="1" parent="1" source="dHhgo-KEHREzpWXKJiHu-5" target="dHhgo-KEHREzpWXKJiHu-7">
          <mxGeometry relative="1" as="geometry">
            <mxPoint x="430" y="200" as="sourcePoint" />
            <Array as="points">
              <mxPoint x="520" y="210" />
              <mxPoint x="530" y="190" />
              <mxPoint x="500" y="215" />
              <mxPoint x="520" y="199.66" />
            </Array>
            <mxPoint x="580" y="190" as="targetPoint" />
          </mxGeometry>
        </mxCell>
        <mxCell id="dHhgo-KEHREzpWXKJiHu-18" value="pénzlevonás" style="html=1;verticalAlign=bottom;endArrow=none;edgeStyle=elbowEdgeStyle;elbow=vertical;curved=0;rounded=0;endFill=0;startArrow=classic;startFill=1;" edge="1" parent="1" source="dHhgo-KEHREzpWXKJiHu-5" target="dHhgo-KEHREzpWXKJiHu-7">
          <mxGeometry x="-0.0012" relative="1" as="geometry">
            <mxPoint x="440" y="230.34" as="sourcePoint" />
            <Array as="points">
              <mxPoint x="490" y="280" />
              <mxPoint x="480" y="250" />
              <mxPoint x="525" y="230" />
            </Array>
            <mxPoint x="585" y="230.34" as="targetPoint" />
            <mxPoint as="offset" />
          </mxGeometry>
        </mxCell>
        <mxCell id="dHhgo-KEHREzpWXKJiHu-19" value="sikeres fizetés" style="html=1;verticalAlign=bottom;endArrow=none;edgeStyle=elbowEdgeStyle;elbow=vertical;curved=0;rounded=0;endFill=0;startArrow=classic;startFill=1;" edge="1" parent="1" source="aM9ryv3xv72pqoxQDRHE-6" target="dHhgo-KEHREzpWXKJiHu-5">
          <mxGeometry x="-0.0012" relative="1" as="geometry">
            <mxPoint x="300" y="230" as="sourcePoint" />
            <Array as="points">
              <mxPoint x="380" y="300" />
              <mxPoint x="400" y="270" />
            </Array>
            <mxPoint x="445" y="230" as="targetPoint" />
            <mxPoint as="offset" />
          </mxGeometry>
        </mxCell>
        <mxCell id="dHhgo-KEHREzpWXKJiHu-20" value="visszaigazolás" style="html=1;verticalAlign=bottom;endArrow=none;edgeStyle=elbowEdgeStyle;elbow=vertical;curved=0;rounded=0;endFill=0;startArrow=classic;startFill=1;" edge="1" parent="1" source="aM9ryv3xv72pqoxQDRHE-2" target="aM9ryv3xv72pqoxQDRHE-6">
          <mxGeometry x="-0.0012" relative="1" as="geometry">
            <mxPoint x="100" y="230" as="sourcePoint" />
            <Array as="points">
              <mxPoint x="250" y="330" />
              <mxPoint x="140" y="300" />
              <mxPoint x="210" y="290" />
              <mxPoint x="190" y="230" />
            </Array>
            <mxPoint x="245" y="230" as="targetPoint" />
            <mxPoint as="offset" />
          </mxGeometry>
        </mxCell>
        <mxCell id="dHhgo-KEHREzpWXKJiHu-21" value="" style="shape=umlActor;verticalLabelPosition=bottom;verticalAlign=top;html=1;outlineConnect=0;" vertex="1" parent="1">
          <mxGeometry x="78.75" y="20" width="22.5" height="40" as="geometry" />
        </mxCell>
        <mxCell id="dHhgo-KEHREzpWXKJiHu-26" value="érvényes adatok" style="shape=umlFrame;whiteSpace=wrap;html=1;pointerEvents=0;" vertex="1" parent="1">
          <mxGeometry x="10" y="220" width="630" height="130" as="geometry" />
        </mxCell>
        <mxCell id="dHhgo-KEHREzpWXKJiHu-28" value="összesítés" style="html=1;align=left;spacingLeft=2;endArrow=block;rounded=0;edgeStyle=orthogonalEdgeStyle;curved=0;rounded=0;" edge="1" target="aM9ryv3xv72pqoxQDRHE-6" parent="1">
          <mxGeometry x="-0.0024" relative="1" as="geometry">
            <mxPoint x="275" y="110" as="sourcePoint" />
            <Array as="points">
              <mxPoint x="305" y="110" />
              <mxPoint x="305" y="140" />
            </Array>
            <mxPoint x="280" y="140.02857142857135" as="targetPoint" />
            <mxPoint as="offset" />
          </mxGeometry>
        </mxCell>
        <mxCell id="dHhgo-KEHREzpWXKJiHu-30" value="érévnytelen adatok" style="shape=umlFrame;whiteSpace=wrap;html=1;pointerEvents=0;width=70;height=30;" vertex="1" parent="1">
          <mxGeometry x="10" y="350" width="630" height="90" as="geometry" />
        </mxCell>
        <mxCell id="dHhgo-KEHREzpWXKJiHu-31" value="sikertelen fizetés" style="html=1;verticalAlign=bottom;endArrow=none;edgeStyle=elbowEdgeStyle;elbow=vertical;curved=0;rounded=0;endFill=0;startArrow=classic;startFill=1;" edge="1" parent="1" source="aM9ryv3xv72pqoxQDRHE-6" target="dHhgo-KEHREzpWXKJiHu-5">
          <mxGeometry x="-0.0012" relative="1" as="geometry">
            <mxPoint x="270" y="380" as="sourcePoint" />
            <Array as="points">
              <mxPoint x="320" y="390" />
              <mxPoint x="375" y="380" />
              <mxPoint x="395" y="350" />
            </Array>
            <mxPoint x="420" y="380" as="targetPoint" />
            <mxPoint as="offset" />
          </mxGeometry>
        </mxCell>
        <mxCell id="dHhgo-KEHREzpWXKJiHu-32" value="elutasítás" style="html=1;verticalAlign=bottom;endArrow=none;edgeStyle=elbowEdgeStyle;elbow=vertical;curved=0;rounded=0;endFill=0;startArrow=classic;startFill=1;" edge="1" parent="1" source="aM9ryv3xv72pqoxQDRHE-2" target="aM9ryv3xv72pqoxQDRHE-6">
          <mxGeometry x="-0.0012" relative="1" as="geometry">
            <mxPoint x="90" y="410" as="sourcePoint" />
            <Array as="points">
              <mxPoint x="245" y="410" />
              <mxPoint x="135" y="380" />
              <mxPoint x="205" y="370" />
              <mxPoint x="185" y="310" />
            </Array>
            <mxPoint x="260" y="410" as="targetPoint" />
            <mxPoint as="offset" />
          </mxGeometry>
        </mxCell>
        <mxCell id="dHhgo-KEHREzpWXKJiHu-33" value="pénzlevonás elutasítása" style="html=1;verticalAlign=bottom;endArrow=none;edgeStyle=elbowEdgeStyle;elbow=vertical;curved=0;rounded=0;endFill=0;startArrow=classic;startFill=1;" edge="1" parent="1" source="dHhgo-KEHREzpWXKJiHu-5" target="dHhgo-KEHREzpWXKJiHu-7">
          <mxGeometry x="-0.0012" relative="1" as="geometry">
            <mxPoint x="440" y="370" as="sourcePoint" />
            <Array as="points">
              <mxPoint x="540" y="370" />
              <mxPoint x="560" y="340" />
            </Array>
            <mxPoint x="580" y="370" as="targetPoint" />
            <mxPoint as="offset" />
          </mxGeometry>
        </mxCell>
      </root>
    </mxGraphModel>
  </diagram>
</mxfile>
